<?xml version="1.0" standalone="no"?>
<!DOCTYPE svg PUBLIC "-//W3C//DTD SVG 20010904//EN"
 "http://www.w3.org/TR/2001/REC-SVG-20010904/DTD/svg10.dtd">
<svg version="1.0" xmlns="http://www.w3.org/2000/svg"
 width="894.000000pt" height="894.000000pt" viewBox="0 0 894.000000 894.000000"
 preserveAspectRatio="xMidYMid meet">
<metadata>
Created by potrace 1.14, written by Peter Selinger 2001-2017
</metadata>
<g transform="translate(0.000000,894.000000) scale(0.100000,-0.100000)"
fill="#000000" stroke="none">
<path d="M372 7684 c-13 -23 1 -89 23 -111 18 -17 19 -17 12 1 -5 13 1 27 23
47 36 35 36 36 8 60 -28 23 -54 24 -66 3z"/>
<path d="M450 7447 c0 -7 4 -17 9 -22 4 -6 16 -41 26 -78 10 -37 22 -70 27
-73 4 -3 8 -13 8 -23 0 -23 66 -155 85 -171 8 -7 15 -19 15 -26 0 -8 4 -14 9
-14 5 0 16 -21 25 -47 17 -48 23 -60 114 -195 31 -46 52 -88 52 -105 1 -15 9
-44 20 -63 10 -19 31 -59 45 -87 14 -29 29 -53 34 -53 5 0 12 -11 15 -24 3
-14 20 -34 36 -46 17 -12 30 -28 30 -36 0 -8 7 -14 15 -14 9 0 15 -9 15 -25 0
-14 5 -25 10 -25 6 0 10 -7 10 -15 0 -19 37 -130 55 -165 7 -14 29 -43 49 -65
20 -21 36 -47 36 -56 0 -10 4 -20 9 -23 5 -3 12 -18 16 -33 3 -15 16 -40 27
-56 45 -63 98 -180 109 -241 16 -83 0 -192 -40 -272 -55 -112 -70 -151 -81
-211 -10 -56 -34 -121 -50 -133 -11 -9 -51 -110 -49 -123 4 -21 -13 -192 -20
-202 -4 -5 -13 -28 -20 -50 -11 -37 -32 -92 -52 -140 -4 -11 -11 -42 -14 -70
-3 -27 -10 -54 -15 -60 -35 -42 -47 -265 -14 -265 8 0 15 12 16 28 3 53 4 57
13 72 5 8 10 49 11 90 0 42 7 87 14 100 9 18 10 25 1 28 -18 6 -13 29 8 35 12
3 26 23 37 55 10 28 21 49 25 46 4 -2 11 1 15 7 3 6 1 15 -6 19 -10 6 -9 13 4
31 9 13 16 33 16 46 0 12 8 29 18 39 18 18 22 36 23 94 0 19 7 42 15 51 9 9
17 34 19 55 4 49 33 125 53 141 38 31 82 149 82 220 0 22 5 44 11 50 12 12 41
125 40 158 0 11 7 43 15 72 9 29 14 59 11 67 -3 8 1 20 9 26 16 14 19 50 4 50
-5 0 -10 4 -10 9 0 5 18 11 40 15 32 5 40 10 40 28 0 11 -8 27 -17 34 -16 12
-14 13 20 14 30 0 37 4 37 20 0 11 -5 20 -11 20 -7 0 -9 11 -6 29 4 19 2 31
-7 34 -8 3 -13 21 -13 44 0 29 -7 46 -27 66 -27 27 -56 36 -56 16 0 -5 -5 -7
-11 -3 -8 4 -8 9 0 17 14 14 15 80 1 72 -5 -3 -10 -15 -10 -26 0 -10 -6 -19
-14 -19 -21 0 -28 17 -10 24 8 3 12 10 9 16 -3 5 -2 10 3 10 5 0 12 9 15 20 3
13 0 20 -9 20 -15 0 -37 34 -27 44 3 3 1 6 -5 6 -6 0 -15 -8 -21 -17 -8 -15
-12 -16 -22 -5 -11 10 -10 12 4 12 9 0 17 7 17 15 0 8 -6 15 -13 15 -8 0 -24
11 -37 25 -29 31 -40 32 -33 3 6 -22 5 -22 -14 2 -11 14 -28 39 -37 57 -9 18
-24 36 -33 42 -15 8 -15 13 -5 36 17 36 15 45 -8 45 -12 0 -20 7 -20 16 0 9 9
18 20 21 16 4 20 14 20 43 0 21 7 43 15 50 19 16 19 30 0 30 -8 0 -15 -7 -15
-15 0 -8 -4 -15 -8 -15 -15 0 -30 22 -25 36 3 8 0 14 -6 14 -6 0 -11 -10 -11
-23 0 -12 -9 -30 -21 -40 -20 -17 -20 -17 -14 17 7 34 6 34 -35 41 -26 4 -46
3 -53 -4 -18 -18 -29 -13 -22 9 8 26 -14 58 -26 38 -5 -7 -9 -24 -10 -38 -1
-22 -2 -23 -7 -5 -13 39 -37 65 -60 65 -23 0 -23 0 -5 30 9 17 20 30 23 30 3
0 13 -12 22 -27 11 -17 18 -22 18 -12 0 26 21 40 37 24 16 -16 43 -9 43 10 0
7 -13 16 -30 20 -33 7 -38 19 -13 33 15 9 15 12 0 51 -19 47 -22 81 -7 81 6 0
10 -6 10 -14 0 -7 7 -19 16 -27 8 -7 13 -20 11 -30 -3 -11 4 -21 20 -28 34
-16 53 -14 53 5 0 13 -3 14 -15 4 -25 -20 -42 10 -50 86 l-7 69 46 -3 c29 -3
46 0 46 7 0 6 -9 11 -21 11 -11 0 -29 5 -40 10 -14 8 -19 7 -20 -2 0 -7 -5 -1
-11 15 -5 15 -17 27 -26 27 -9 0 -28 12 -41 25 -12 14 -27 22 -32 19 -5 -3 -9
3 -9 13 0 19 -26 46 -51 51 -8 2 -18 10 -24 18 -5 9 -18 25 -28 37 -12 14 -14
23 -7 25 10 4 -35 34 -72 48 -10 3 -18 13 -18 20 0 8 -5 14 -11 14 -6 0 -25
11 -43 25 -18 14 -38 25 -43 25 -6 0 -13 7 -17 15 -3 9 -18 15 -35 15 -17 0
-45 9 -63 20 -38 23 -58 25 -58 7z m260 -387 c0 -5 -7 -10 -15 -10 -8 0 -15 5
-15 10 0 6 7 10 15 10 8 0 15 -4 15 -10z m57 -36 c-3 -3 -12 -4 -19 -1 -8 3
-5 6 6 6 11 1 17 -2 13 -5z m-37 -8 c0 -3 -4 -8 -10 -11 -5 -3 -10 -1 -10 4 0
6 5 11 10 11 6 0 10 -2 10 -4z m50 -30 c0 -8 -5 -18 -11 -22 -14 -8 -33 11
-25 25 10 16 36 13 36 -3z m200 -6 c0 -5 -4 -10 -10 -10 -5 0 -10 5 -10 10 0
6 5 10 10 10 6 0 10 -4 10 -10z m-12 -92 c19 -19 14 -28 -13 -28 -27 0 -28 1
-19 24 7 19 16 20 32 4z m-54 -68 c14 -5 26 -16 26 -25 0 -22 -13 -18 -38 10
-25 28 -24 29 12 15z m-34 -80 c0 -5 -2 -10 -4 -10 -3 0 -8 5 -11 10 -3 6 -1
10 4 10 6 0 11 -4 11 -10z m305 -190 c3 -5 -3 -10 -14 -10 -12 0 -21 5 -21 10
0 6 6 10 14 10 8 0 18 -4 21 -10z m-120 -188 c-2 -2 -13 2 -24 10 -12 8 -18
17 -15 21 3 3 14 -2 25 -11 10 -9 17 -18 14 -20z m320 -212 c0 -7 -6 -15 -12
-17 -8 -3 -13 4 -13 17 0 13 5 20 13 18 6 -3 12 -11 12 -18z m-92 -7 c-7 -2
-13 -12 -13 -20 0 -15 -2 -15 -17 0 -10 8 -29 17 -43 20 -14 2 0 5 30 5 30 0
49 -2 43 -5z m49 -102 c-2 -8 -4 -26 -5 -41 -2 -20 -6 -26 -19 -22 -10 2 -18
12 -19 21 0 9 -2 26 -5 39 -4 20 -1 23 23 20 18 -2 27 -8 25 -17z m-62 -31 c0
-5 -4 -10 -10 -10 -5 0 -10 5 -10 10 0 6 5 10 10 10 6 0 10 -4 10 -10z m240
-42 c0 -13 -20 -9 -36 7 -23 22 -6 40 17 19 10 -9 19 -21 19 -26z m-134 -41
c-4 -29 -56 -63 -56 -37 0 6 7 10 16 10 12 0 15 7 12 29 -4 26 -2 28 13 20 9
-5 16 -15 15 -22z m134 -37 c0 -5 -2 -10 -4 -10 -3 0 -8 5 -11 10 -3 6 -1 10
4 10 6 0 11 -4 11 -10z"/>
<path d="M8582 7290 c0 -19 2 -27 5 -17 2 9 2 25 0 35 -3 9 -5 1 -5 -18z"/>
<path d="M8170 7162 c-25 -12 -21 -29 5 -24 14 2 25 11 25 18 0 15 -7 16 -30
6z"/>
<path d="M8089 7119 c-11 -11 -27 -18 -34 -15 -7 2 -42 -11 -77 -29 -34 -19
-73 -39 -85 -44 -11 -5 -24 -15 -28 -20 -3 -6 -17 -11 -30 -11 -13 0 -31 -10
-39 -21 -8 -13 -21 -19 -30 -16 -8 3 -20 -1 -26 -9 -7 -8 -23 -14 -35 -14 -13
0 -26 -7 -29 -16 -9 -24 -7 -27 10 -10 10 11 34 16 68 16 45 0 59 5 87 30 19
17 44 33 57 36 12 3 22 11 22 18 0 7 4 6 9 -3 7 -11 14 -10 37 5 16 10 31 21
34 24 19 22 73 50 95 50 19 0 26 4 22 14 -3 7 0 19 6 25 8 8 8 11 -1 11 -7 0
-21 -9 -33 -21z"/>
<path d="M8287 7041 c-17 -20 -28 -26 -38 -20 -8 5 -18 9 -24 9 -5 0 -4 -4 4
-9 10 -6 2 -11 -25 -16 -47 -8 -83 -35 -81 -61 1 -11 -6 -20 -18 -22 -11 -3
-26 -13 -33 -23 -7 -11 -22 -19 -32 -19 -11 0 -20 -8 -22 -22 -3 -22 -23 -31
-72 -29 -25 0 -73 -27 -114 -66 -7 -7 -20 -13 -28 -13 -8 0 -14 -6 -14 -14 0
-21 -19 -30 -34 -17 -16 13 -46 -10 -46 -35 0 -8 -9 -13 -23 -12 -31 3 -87
-32 -87 -54 0 -13 -8 -18 -31 -18 -26 0 -29 -3 -24 -20 5 -14 2 -20 -9 -20 -9
0 -16 9 -16 20 0 25 0 25 -49 -1 -39 -20 -56 -43 -45 -60 3 -5 -2 -9 -10 -9
-9 0 -16 7 -16 15 0 20 -5 19 -43 -7 -18 -13 -34 -24 -36 -25 -2 -1 2 -9 9
-18 10 -12 10 -15 -2 -15 -8 0 -19 5 -26 12 -6 6 -15 8 -19 4 -4 -4 -1 -11 7
-16 8 -5 11 -12 7 -16 -3 -4 -13 -1 -22 6 -13 11 -14 10 -10 -3 9 -21 -10 -30
-25 -12 -7 8 -16 12 -22 9 -5 -3 -4 -11 3 -20 12 -15 6 -44 -11 -44 -5 0 -10
7 -10 15 0 8 -7 15 -15 15 -8 0 -15 -4 -15 -10 0 -5 4 -10 9 -10 5 0 7 -9 4
-20 -6 -24 -29 -26 -41 -4 -8 14 -10 14 -14 -4 -4 -13 0 -23 8 -26 20 -8 17
-36 -3 -37 -11 0 -13 -3 -5 -6 14 -5 17 -33 3 -33 -5 0 -11 5 -13 11 -2 5 -11
7 -21 3 -13 -5 -15 -10 -6 -20 6 -7 8 -18 4 -24 -3 -5 -1 -10 5 -10 6 0 9 -4
5 -9 -3 -5 -1 -12 5 -16 5 -3 10 0 10 7 0 10 11 12 40 10 22 -2 51 -1 65 2 21
5 25 12 25 46 0 22 -4 40 -10 40 -5 0 -10 -18 -10 -40 0 -33 -3 -40 -20 -40
-22 0 -27 15 -9 26 6 3 9 19 7 35 -6 38 14 44 64 18 43 -22 71 -19 62 6 -4 11
0 15 16 15 16 0 20 -4 16 -15 -3 -8 -2 -15 3 -15 16 0 21 13 10 27 -6 7 -8 13
-4 13 4 0 2 7 -5 15 -14 17 -7 45 12 45 9 0 8 -3 -2 -10 -10 -6 -11 -10 -2
-10 6 0 12 -7 12 -15 0 -9 7 -18 15 -21 8 -4 15 -14 15 -23 1 -10 6 -6 16 12
11 20 22 27 46 27 26 0 29 -2 18 -15 -8 -9 -21 -13 -33 -9 -13 4 -18 2 -15 -7
7 -20 88 -22 88 -3 0 28 17 4 23 -32 4 -25 2 -41 -9 -51 -19 -19 -16 -22 18
-16 34 6 40 23 22 58 -11 22 -12 30 -2 36 17 11 33 -1 17 -12 -11 -7 -9 -10 9
-15 12 -4 22 -12 22 -19 0 -8 3 -20 6 -28 3 -9 -1 -17 -11 -19 -14 -2 -13 -7
9 -31 14 -15 26 -38 27 -50 0 -12 3 -16 6 -9 2 6 9 12 15 12 5 0 17 8 26 17
16 15 17 15 20 0 2 -8 9 -18 15 -20 7 -2 1 -2 -11 0 -13 2 -21 0 -18 -6 11
-18 -6 -42 -25 -36 -11 4 -19 2 -19 -3 0 -15 26 -22 38 -10 7 7 16 4 29 -9 11
-11 25 -17 31 -15 7 2 12 -1 12 -7 0 -6 14 -25 30 -43 21 -22 27 -34 19 -39
-7 -4 -9 -14 -6 -24 5 -12 2 -16 -15 -13 -11 2 -23 -3 -25 -9 -3 -7 3 -13 13
-13 12 0 15 -3 8 -10 -15 -15 -39 -3 -52 23 l-11 22 -7 -22 c-3 -13 -10 -23
-16 -23 -5 0 -4 8 2 19 13 26 13 31 -5 31 -8 0 -15 -6 -15 -12 0 -8 -7 -5 -15
6 -10 14 -15 15 -15 6 0 -11 -3 -11 -12 -2 -8 8 -8 15 2 27 7 8 10 18 6 22 -3
3 -6 1 -6 -5 0 -7 -7 -12 -15 -12 -8 0 -15 -7 -15 -15 0 -8 -4 -15 -10 -15 -5
0 -10 7 -10 15 0 22 -15 18 -33 -7 -13 -20 -18 -21 -36 -10 -26 15 -28 -1 -3
-25 11 -12 17 -33 17 -63 0 -40 3 -46 39 -70 21 -15 45 -39 52 -53 10 -18 25
-28 52 -33 20 -4 43 -12 51 -18 12 -9 13 -8 8 7 -5 12 -1 17 13 17 18 0 27 16
34 62 1 9 7 23 14 31 8 9 10 26 6 41 -4 17 -2 26 6 26 7 0 10 7 6 16 -4 10 1
18 13 21 21 5 57 52 53 67 -2 5 6 15 17 22 16 12 26 36 36 84 0 3 7 22 14 43
13 38 25 47 34 25 3 -7 6 0 6 15 1 16 -5 30 -14 33 -18 7 -20 24 -2 24 16 0
21 51 5 61 -15 9 7 39 29 39 10 0 14 7 10 20 -3 13 0 20 9 20 8 0 18 8 21 18
4 9 14 27 24 40 9 12 23 54 29 92 9 56 15 70 30 70 22 0 44 25 35 40 -3 5 0
12 7 15 7 3 14 17 15 32 0 15 6 29 12 31 6 2 11 11 12 20 0 10 3 12 5 5 6 -13
31 -7 55 14 9 7 19 10 22 6 4 -3 7 7 7 23 0 16 7 40 16 52 8 12 13 31 9 41 -3
12 0 21 10 25 9 3 15 18 15 35 0 16 5 33 10 36 6 3 10 17 10 30 0 14 9 29 20
35 32 17 24 27 -37 39 -73 14 -67 15 -96 -18z m-437 -321 c0 -5 -4 -10 -10
-10 -5 0 -10 5 -10 10 0 6 5 10 10 10 6 0 10 -4 10 -10z m-97 -67 c-7 -2 -19
-2 -25 0 -7 3 -2 5 12 5 14 0 19 -2 13 -5z m167 -11 c0 -4 -18 -7 -40 -7 -22
0 -40 3 -40 7 0 5 18 8 40 8 22 0 40 -3 40 -8z m78 -20 c2 -7 -2 -10 -12 -6
-9 3 -16 11 -16 16 0 13 23 5 28 -10z m-285 -9 c-7 -2 -21 -2 -30 0 -10 3 -4
5 12 5 17 0 24 -2 18 -5z m290 -60 c-4 -9 -10 -10 -25 -2 -19 10 -19 11 -2 30
17 19 19 19 25 2 3 -10 4 -24 2 -30z m-76 -5 c-3 -8 -6 -5 -6 6 -1 11 2 17 5
13 3 -3 4 -12 1 -19z m-222 -8 c-3 -5 -12 -10 -18 -10 -7 0 -6 4 3 10 19 12
23 12 15 0z m84 -57 c14 -11 14 -14 1 -23 -13 -8 -13 -11 -1 -19 8 -5 20 -7
28 -4 7 3 20 0 28 -7 13 -11 13 -14 -2 -26 -15 -11 -16 -15 -4 -26 10 -9 12
-9 7 0 -11 19 15 14 30 -5 7 -10 14 -24 14 -32 0 -11 -4 -10 -13 4 -8 10 -19
15 -26 11 -7 -5 -18 0 -26 10 -11 16 -17 16 -39 6 -14 -6 -26 -8 -26 -3 0 5 6
11 13 14 9 3 7 9 -5 24 -20 21 -24 53 -8 53 6 0 10 4 10 10 0 5 -6 8 -12 6
-45 -14 -78 -15 -78 -2 0 9 16 17 40 21 22 4 40 12 41 18 0 7 3 5 6 -3 4 -8
13 -21 22 -27z m-409 7 c0 -5 -5 -10 -11 -10 -5 0 -7 5 -4 10 3 6 8 10 11 10
2 0 4 -4 4 -10z m478 -2 c17 -17 15 -38 -4 -38 -8 0 -13 4 -10 9 3 5 -1 12
-10 15 -8 3 -12 10 -9 16 8 13 18 13 33 -2z m212 -74 c0 -8 -4 -12 -10 -9 -5
3 -10 10 -10 16 0 5 5 9 10 9 6 0 10 -7 10 -16z m-727 -15 c5 -9 7 -29 3 -45
l-8 -29 -13 25 c-7 14 -16 23 -18 20 -3 -3 -9 -2 -13 3 -4 4 -3 7 3 7 6 0 9 9
6 21 -5 16 -2 20 12 18 10 -2 22 -11 28 -20z m135 -7 c2 -8 -8 -12 -30 -12
-24 0 -29 -3 -18 -10 11 -7 12 -12 3 -21 -8 -8 -14 -6 -22 9 -9 16 -7 22 7 28
9 4 20 6 25 6 4 -1 7 3 7 9 0 14 23 6 28 -9z m-198 -2 c0 -5 -7 -10 -16 -10
-8 0 -12 5 -9 10 3 6 10 10 16 10 5 0 9 -4 9 -10z m231 -13 c-10 -9 -11 -8 -5
6 3 10 9 15 12 12 3 -3 0 -11 -7 -18z m422 4 c5 -22 -1 -33 -14 -25 -12 7 -12
44 0 44 5 0 11 -9 14 -19z m-709 -26 c3 -9 0 -15 -9 -15 -8 0 -15 7 -15 15 0
8 4 15 9 15 5 0 11 -7 15 -15z m56 5 c0 -5 6 -10 14 -10 13 0 26 -20 26 -41 0
-20 -36 -7 -47 18 -16 33 -16 43 -3 43 6 0 10 -4 10 -10z m723 -36 c-9 -15
-22 -23 -30 -20 -8 4 -19 6 -24 6 -5 0 -9 5 -9 10 0 6 14 10 30 10 21 0 30 5
30 16 0 8 4 12 10 9 6 -4 3 -16 -7 -31z m-337 -9 c-3 -8 -1 -15 4 -15 6 0 10
-8 10 -17 0 -15 -4 -13 -20 7 -24 31 -25 40 -4 40 10 0 14 -6 10 -15z m-476
-14 c0 -11 2 -25 5 -33 5 -13 -36 -38 -62 -38 -23 0 -14 18 13 24 22 6 25 11
22 36 -3 21 0 30 9 30 7 0 13 -9 13 -19z m573 -64 c3 -8 1 -20 -5 -28 -8 -11
-9 -11 -5 3 5 14 0 16 -30 11 -27 -5 -34 -3 -29 6 4 6 16 9 26 6 10 -3 21 -1
25 5 8 13 12 13 18 -3z m-83 -31 c0 -8 6 -16 13 -19 9 -4 9 -7 -1 -18 -11 -11
-14 -10 -18 9 -4 12 -10 22 -15 22 -5 0 -9 5 -9 10 0 6 7 10 15 10 8 0 15 -6
15 -14z m115 -56 c3 -5 1 -10 -4 -10 -6 0 -11 5 -11 10 0 6 2 10 4 10 3 0 8
-4 11 -10z m15 -320 c0 -5 -5 -10 -11 -10 -5 0 -7 5 -4 10 3 6 8 10 11 10 2 0
4 -4 4 -10z"/>
<path d="M1580 7011 c0 -14 26 -32 55 -37 25 -4 26 -3 12 11 -9 8 -23 15 -31
15 -9 0 -16 5 -16 10 0 6 -4 10 -10 10 -5 0 -10 -4 -10 -9z"/>
<path d="M1040 6950 c0 -5 7 -10 15 -10 8 0 15 -9 15 -20 0 -26 16 -26 31 1 9
17 13 19 20 8 7 -12 9 -12 9 0 0 11 4 9 15 -5 8 -10 15 -14 15 -8 0 23 -37 44
-78 44 -23 0 -42 -4 -42 -10z"/>
<path d="M1160 6950 c0 -5 5 -10 10 -10 6 0 10 5 10 10 0 6 -4 10 -10 10 -5 0
-10 -4 -10 -10z"/>
<path d="M1200 6950 c0 -6 7 -10 15 -10 8 0 15 2 15 4 0 2 -7 6 -15 10 -8 3
-15 1 -15 -4z"/>
<path d="M7524 6855 c-44 -27 -46 -30 -25 -33 13 -2 37 6 54 18 16 13 43 24
59 25 16 1 34 7 40 13 9 9 0 11 -33 10 -31 -2 -62 -12 -95 -33z"/>
<path d="M1150 6850 c0 -5 5 -10 10 -10 6 0 10 5 10 10 0 6 -4 10 -10 10 -5 0
-10 -4 -10 -10z"/>
<path d="M1325 6840 c-3 -5 3 -10 14 -10 12 0 21 5 21 10 0 6 -6 10 -14 10 -8
0 -18 -4 -21 -10z"/>
<path d="M1040 6801 c0 -6 5 -11 11 -11 5 0 8 -4 4 -10 -7 -12 26 -51 37 -44
5 3 3 13 -4 21 -7 9 -13 23 -13 32 0 8 -8 17 -17 19 -10 2 -18 -1 -18 -7z"/>
<path d="M1125 6770 c3 -5 8 -10 11 -10 2 0 4 5 4 10 0 6 -5 10 -11 10 -5 0
-7 -4 -4 -10z"/>
<path d="M1135 6710 c-3 -5 -1 -10 4 -10 6 0 11 5 11 10 0 6 -2 10 -4 10 -3 0
-8 -4 -11 -10z"/>
<path d="M1065 6670 c-8 -13 9 -20 24 -11 10 6 9 10 -3 14 -8 3 -18 2 -21 -3z"/>
<path d="M2508 6675 c-14 -14 -134 -24 -166 -14 -18 6 -36 8 -40 5 -3 -4 3 -9
15 -12 12 -3 24 -13 27 -21 3 -8 10 -12 15 -9 5 3 14 -1 21 -8 6 -8 25 -18 42
-22 24 -5 35 -2 45 12 7 10 13 15 13 11 0 -3 12 5 27 19 17 16 23 28 17 34 -6
6 -13 8 -16 5z"/>
<path d="M3476 6665 c4 -10 17 -14 40 -13 49 4 46 22 -3 26 -35 3 -42 0 -37
-13z"/>
<path d="M3035 6665 c-5 -2 -23 -6 -38 -10 -24 -5 -27 -8 -17 -20 13 -15 75
-20 104 -9 9 3 16 15 16 25 0 14 -7 19 -27 18 -16 0 -32 -2 -38 -4z"/>
<path d="M3780 6630 c0 -5 6 -10 14 -10 8 0 18 5 21 10 3 6 -3 10 -14 10 -12
0 -21 -4 -21 -10z"/>
<path d="M1281 6553 c-1 -7 -8 -13 -16 -13 -17 0 -20 -16 -5 -25 6 -3 10 0 10
7 0 10 3 9 10 -2 14 -22 25 -3 12 22 -6 13 -11 17 -11 11z"/>
<path d="M8140 6530 c0 -5 5 -10 10 -10 6 0 10 5 10 10 0 6 -4 10 -10 10 -5 0
-10 -4 -10 -10z"/>
<path d="M1481 6487 c2 -1 12 -9 22 -16 14 -12 17 -11 17 3 0 10 -8 16 -22 16
-12 0 -19 -1 -17 -3z"/>
<path d="M1432 6460 c0 -14 2 -19 5 -12 2 6 2 18 0 25 -3 6 -5 1 -5 -13z"/>
<path d="M1230 6420 c0 -22 5 -40 10 -40 6 0 10 18 10 40 0 22 -4 40 -10 40
-5 0 -10 -18 -10 -40z"/>
<path d="M1511 6424 c0 -11 3 -14 6 -6 3 7 2 16 -1 19 -3 4 -6 -2 -5 -13z"/>
<path d="M1351 6344 c0 -11 3 -14 6 -6 3 7 2 16 -1 19 -3 4 -6 -2 -5 -13z"/>
<path d="M7077 6333 c-10 -9 -9 -41 2 -47 5 -3 11 8 13 24 4 29 -1 37 -15 23z"/>
<path d="M1300 6315 c0 -8 9 -15 20 -15 11 0 20 7 20 15 0 8 -9 15 -20 15 -11
0 -20 -7 -20 -15z"/>
<path d="M6976 6283 c-4 -11 -14 -20 -24 -19 -13 1 -17 -7 -17 -31 0 -43 -11
-51 -35 -25 -21 22 -36 30 -25 12 3 -5 -5 -16 -19 -25 -15 -10 -22 -22 -19
-34 5 -20 -33 -37 -40 -17 -2 6 -3 2 -1 -9 1 -11 -3 -28 -11 -38 -13 -18 -14
-18 -34 2 -25 25 -26 28 -3 34 15 4 15 5 0 6 -24 1 -29 -11 -18 -48 7 -27 7
-32 -5 -27 -8 3 -19 -3 -24 -12 -8 -14 -12 -15 -22 -4 -11 10 -10 12 4 12 11
0 17 8 17 25 0 14 -4 25 -10 25 -5 0 -10 -7 -10 -15 0 -8 -6 -15 -13 -15 -8 0
-19 -12 -26 -26 -12 -27 -37 -28 -35 0 1 9 -2 16 -7 16 -13 0 -28 -43 -19 -55
18 -25 17 -44 -2 -62 -20 -18 -21 -18 -13 6 7 23 6 24 -26 16 -19 -5 -52 -9
-74 -9 -35 -1 -40 -4 -38 -23 3 -22 -22 -39 -32 -23 -9 15 -25 12 -25 -5 0 -8
9 -15 20 -15 11 0 20 -4 20 -10 0 -8 -26 -16 -82 -24 -10 -1 -20 -5 -24 -9
-10 -10 23 -37 46 -37 12 0 18 -4 15 -10 -3 -5 -18 -10 -32 -10 -24 0 -25 -2
-18 -37 4 -21 11 -39 16 -41 13 -5 11 -26 -6 -58 -20 -39 -20 -65 0 -38 13 16
16 17 25 4 5 -8 10 -23 10 -32 0 -11 8 -18 20 -18 11 0 20 -4 20 -9 0 -7 51
-23 85 -25 8 -1 28 -32 38 -61 5 -13 37 19 37 37 0 8 4 7 11 -4 6 -11 22 -18
38 -18 28 0 29 -1 36 -77 4 -42 11 -86 15 -97 7 -19 9 -19 15 -3 11 27 22 20
36 -20 6 -20 22 -48 35 -62 13 -14 24 -34 24 -43 0 -10 7 -18 15 -18 8 0 15 5
15 10 0 6 5 10 11 10 5 0 8 -4 4 -9 -9 -16 33 -33 53 -22 16 10 15 10 -3 11
l-20 1 20 8 c15 7 23 3 33 -15 7 -13 17 -24 22 -24 18 0 21 20 6 36 -21 21
-20 24 9 24 18 0 23 -4 19 -15 -4 -10 0 -15 15 -15 24 0 25 3 9 30 -7 10 -9
22 -5 26 11 12 17 -1 21 -42 4 -41 18 -53 41 -34 11 9 18 7 34 -9 25 -25 29
-26 53 -4 21 19 36 10 19 -11 -7 -8 -10 -20 -6 -26 4 -7 0 -10 -11 -8 -13 2
-20 -4 -22 -20 -3 -21 -2 -21 23 -10 21 9 28 9 35 -1 13 -22 73 25 65 50 -8
25 3 59 20 59 9 0 11 -8 8 -22 -5 -23 -5 -23 10 -3 9 11 11 22 6 23 -5 2 -9
10 -9 18 0 8 -7 17 -15 20 -17 7 -21 44 -5 44 6 0 10 7 10 15 0 8 -4 15 -10
15 -5 0 -10 -7 -10 -15 0 -22 -13 -18 -40 10 -13 14 -29 25 -37 25 -7 0 -13 5
-13 11 0 6 7 9 15 6 8 -4 17 -2 20 3 4 6 -7 10 -24 10 -20 0 -31 5 -31 14 0 9
-7 12 -20 9 -16 -4 -20 0 -20 17 0 15 -5 20 -17 18 -12 -2 -17 -11 -15 -23 3
-20 3 -20 -12 0 -20 26 -20 45 1 45 13 0 14 3 5 12 -10 10 -17 10 -32 0 -28
-17 -47 -15 -53 7 -3 12 -17 21 -41 25 -22 4 -36 13 -36 21 0 8 -4 15 -10 15
-5 0 -10 -5 -10 -12 0 -28 -15 7 -16 38 -1 27 3 34 15 32 10 -2 15 -12 13 -24
-2 -13 3 -21 13 -21 12 0 14 8 9 34 -5 26 -3 33 9 33 11 0 18 -14 23 -46 5
-34 10 -44 22 -42 9 2 19 14 22 28 4 14 12 24 19 22 22 -5 51 9 51 24 0 8 7
14 15 14 20 0 19 -10 -2 -25 -19 -14 -9 -35 18 -35 10 0 19 -5 19 -11 0 -7 10
-9 25 -5 21 5 25 3 25 -16 0 -38 13 -50 42 -39 14 5 29 16 32 23 5 10 7 10 12
1 3 -7 14 -13 23 -13 14 0 17 -6 13 -30 -4 -30 5 -38 24 -21 16 16 64 1 64
-20 0 -11 7 -19 15 -19 8 0 15 -7 15 -15 0 -9 9 -15 21 -15 15 0 19 -5 15 -15
-4 -12 0 -14 20 -9 21 5 27 2 37 -25 11 -30 27 -42 27 -21 0 5 14 22 31 37 17
16 37 40 45 54 7 15 34 46 59 70 36 34 45 49 40 66 -4 16 -1 23 9 23 16 0 15
51 -1 72 -5 7 -13 22 -18 33 -7 18 -9 16 -17 -12 -5 -18 -13 -33 -18 -33 -5 0
-10 -10 -12 -22 -2 -19 -9 -23 -38 -23 -23 -1 -41 6 -52 20 -16 19 -16 21 5
37 13 10 17 18 9 18 -7 0 -20 -7 -28 -15 -20 -20 -41 -20 -24 0 20 24 2 37
-26 19 -23 -16 -24 -15 -24 6 0 13 -5 20 -12 17 -7 -2 -12 -10 -10 -17 1 -7
-3 -18 -9 -26 -9 -12 -5 -14 25 -14 20 0 36 -5 36 -11 0 -5 -8 -9 -17 -8 -10
1 -25 0 -33 -4 -29 -11 -67 -17 -73 -11 -12 13 6 34 24 29 11 -4 19 -2 19 4 0
6 -5 11 -11 11 -6 0 -9 9 -6 20 3 11 1 20 -4 20 -5 0 -9 -4 -9 -9 0 -5 -11
-12 -24 -15 -13 -3 -31 -9 -40 -12 -11 -4 -16 -1 -16 10 0 16 -20 21 -74 17
-20 -2 -27 1 -24 11 3 7 14 13 26 13 11 0 24 4 28 8 4 4 17 7 30 7 17 0 21 4
17 20 -6 22 -18 26 -28 10 -4 -6 -10 -8 -15 -5 -5 3 -11 1 -15 -5 -9 -14 -54
20 -55 41 0 9 6 17 13 16 35 -1 58 4 52 12 -11 19 -70 8 -91 -17 -27 -30 -38
-16 -28 35 7 35 6 37 -10 24 -9 -8 -19 -11 -23 -8 -10 10 19 38 34 33 13 -5
19 25 7 37 -8 7 -74 -56 -74 -71 0 -6 8 -15 17 -21 10 -5 14 -13 9 -18 -5 -4
-11 -2 -13 5 -7 17 -23 15 -40 -5 -12 -16 -13 -11 -8 40 6 56 0 68 -23 45 -7
-7 -12 -8 -12 -2 0 16 37 47 48 40 6 -3 12 1 15 9 4 9 1 12 -9 8 -7 -3 -14 0
-14 6 0 6 7 11 16 11 23 0 13 35 -11 36 -11 1 -24 2 -30 3 -5 1 2 9 16 19 14
9 24 22 22 28 -6 19 28 26 41 9 7 -10 18 -13 29 -9 17 6 21 21 18 57 -1 9 3
17 9 17 7 0 10 -6 7 -14 -4 -9 3 -16 16 -20 12 -3 31 -14 42 -24 27 -25 65
-34 65 -16 0 8 7 14 15 14 8 0 15 8 15 18 0 13 5 11 24 -11 20 -24 27 -26 43
-17 26 16 73 -3 73 -30 0 -11 7 -20 15 -20 36 0 3 63 -44 83 -46 21 -51 21
-51 2 0 -22 -11 -18 -38 13 -15 18 -25 23 -28 15 -8 -18 -34 -16 -34 2 0 8 -4
15 -10 15 -13 0 -13 -23 1 -37 7 -7 7 -13 1 -17 -17 -10 -42 5 -42 25 0 12 -7
19 -20 19 -23 0 -28 19 -5 21 35 3 66 19 59 30 -3 5 -10 6 -16 3 -16 -10 -78
-12 -78 -2 0 15 -19 8 -23 -9 -2 -10 -3 -6 -1 10 2 15 -1 27 -6 27 -6 0 -10 7
-10 15 0 8 -6 15 -12 15 -18 -1 -48 -25 -48 -39 0 -8 -6 -8 -20 1 -16 10 -24
10 -40 1 -12 -8 -21 -9 -25 -3 -3 6 1 10 9 10 9 0 16 6 16 13 0 25 26 51 41
41 41 -25 72 -10 50 24 -7 11 -9 10 -15 -3 -6 -15 -7 -15 -23 0 -14 14 -14 18
-2 26 8 5 20 9 27 9 6 0 12 5 12 10 0 6 -4 10 -10 10 -5 0 -10 8 -10 17 0 14
-3 13 -16 -6 l-17 -24 -17 23 c-17 23 -18 23 -24 3z m9 -53 c3 -5 -1 -10 -9
-10 -9 0 -16 5 -16 10 0 6 4 10 9 10 6 0 13 -4 16 -10z m101 -114 c3 -14 3
-30 -1 -36 -3 -5 1 -17 10 -26 19 -19 15 -38 -8 -42 -12 -2 -17 3 -17 17 0 25
-18 27 -35 4 -13 -18 -45 -12 -45 9 0 17 50 41 50 25 0 -7 5 -4 11 6 6 10 8
29 5 43 -5 17 -2 24 9 24 8 0 17 -11 21 -24z m-166 -14 c0 -14 -11 -21 -26
-15 -21 8 -17 23 6 23 11 0 20 -4 20 -8z m-120 -32 c0 -5 -5 -10 -11 -10 -5 0
-7 5 -4 10 3 6 8 10 11 10 2 0 4 -4 4 -10z m175 0 c3 -5 1 -10 -4 -10 -6 0
-11 5 -11 10 0 6 2 10 4 10 3 0 8 -4 11 -10z m-48 -6 c-3 -3 -12 -4 -19 -1 -8
3 -5 6 6 6 11 1 17 -2 13 -5z m63 -90 c0 -8 -4 -12 -10 -9 -5 3 -10 10 -10 16
0 5 5 9 10 9 6 0 10 -7 10 -16z m-50 2 c0 -3 -4 -8 -10 -11 -5 -3 -10 -1 -10
4 0 6 5 11 10 11 6 0 10 -2 10 -4z m70 -66 c0 -5 -5 -10 -11 -10 -5 0 -7 5 -4
10 3 6 8 10 11 10 2 0 4 -4 4 -10z m-44 -38 c-18 -16 -19 -16 -12 1 3 10 6 24
6 30 0 8 4 7 12 -1 10 -9 8 -16 -6 -30z m-61 -42 c3 -5 -1 -10 -10 -10 -9 0
-13 5 -10 10 3 6 8 10 10 10 2 0 7 -4 10 -10z m-485 -20 c0 -11 -4 -20 -10
-20 -5 0 -10 9 -10 20 0 11 5 20 10 20 6 0 10 -9 10 -20z m500 -20 c-6 -11
-15 -18 -21 -14 -6 4 -6 11 2 20 17 21 31 17 19 -6z m70 -16 c0 -8 -4 -14 -10
-14 -5 0 -10 9 -10 21 0 11 5 17 10 14 6 -3 10 -13 10 -21z m-622 -1 c2 -8 -6
-13 -22 -13 -17 0 -26 5 -26 16 0 19 41 16 48 -3z m12 -37 c0 -3 -4 -8 -10
-11 -5 -3 -10 -1 -10 4 0 6 5 11 10 11 6 0 10 -2 10 -4z m620 -15 c17 -33 11
-47 -10 -21 -11 14 -20 28 -20 33 0 14 20 7 30 -12z m150 -46 c0 -8 -2 -15 -4
-15 -2 0 -6 7 -10 15 -3 8 -1 15 4 15 6 0 10 -7 10 -15z m-740 -48 c0 -5 -4
-5 -10 -2 -5 3 -10 14 -10 23 0 15 2 15 10 2 5 -8 10 -19 10 -23z m660 18 c7
-9 11 -17 8 -20 -2 -2 -12 4 -21 15 -9 11 -13 20 -8 20 5 0 14 -7 21 -15z
m-640 -50 c0 -8 -7 -15 -15 -15 -16 0 -20 12 -8 23 11 12 23 8 23 -8z m304
-11 c3 -8 2 -12 -4 -9 -6 3 -10 10 -10 16 0 14 7 11 14 -7z m62 -4 c8 0 14 -7
14 -15 0 -8 -3 -15 -6 -15 -10 0 -33 33 -33 45 0 6 3 4 6 -2 2 -7 11 -13 19
-13z m-151 0 c-3 -5 -12 -10 -18 -10 -7 0 -6 4 3 10 19 12 23 12 15 0z m327
-2 c2 -7 -1 -28 -7 -47 -9 -24 -14 -29 -18 -18 -3 9 -2 19 3 22 16 10 12 35
-5 29 -8 -4 -15 -2 -15 4 0 9 15 19 31 21 4 1 9 -5 11 -11z m328 -2 c0 -9 -30
-14 -35 -6 -4 6 3 10 14 10 12 0 21 -2 21 -4z m370 -6 c0 -5 -7 -10 -15 -10
-8 0 -15 5 -15 10 0 6 7 10 15 10 8 0 15 -4 15 -10z m-1010 -25 c0 -12 -19
-12 -23 0 -4 9 -1 12 9 8 7 -3 14 -7 14 -8z m110 5 c0 -5 -5 -10 -11 -10 -5 0
-7 5 -4 10 3 6 8 10 11 10 2 0 4 -4 4 -10z m-25 -31 c-10 -15 -25 -10 -19 6 4
8 10 12 15 9 5 -3 7 -10 4 -15z m55 -25 c0 -8 -5 -12 -10 -9 -6 4 -8 11 -5 16
9 14 15 11 15 -7z m-60 2 c0 -3 -4 -8 -10 -11 -5 -3 -10 -1 -10 4 0 6 5 11 10
11 6 0 10 -2 10 -4z m770 -6 c0 -5 -4 -10 -10 -10 -5 0 -10 5 -10 10 0 6 5 10
10 10 6 0 10 -4 10 -10z m-740 -200 c0 -5 -4 -10 -10 -10 -5 0 -10 5 -10 10 0
6 5 10 10 10 6 0 10 -4 10 -10z m39 -41 c-22 -14 -33 -10 -19 6 7 8 17 12 22
9 6 -4 5 -10 -3 -15z m111 -13 c-6 -9 -19 -12 -28 -8 -17 6 -14 7 37 21 2 1
-2 -5 -9 -13z m121 -43 c13 -16 12 -17 -3 -4 -10 7 -18 15 -18 17 0 8 8 3 21
-13z m162 -73 c3 -11 1 -20 -4 -20 -5 0 -9 2 -9 4 0 2 -3 11 -6 20 -3 9 -2 16
4 16 5 0 12 -9 15 -20z"/>
<path d="M7460 6280 c0 -5 9 -10 20 -10 11 0 20 5 20 10 0 6 -9 10 -20 10 -11
0 -20 -4 -20 -10z"/>
<path d="M7272 6260 c0 -14 2 -19 5 -12 2 6 2 18 0 25 -3 6 -5 1 -5 -13z"/>
<path d="M7366 6265 c-8 -8 -25 -15 -37 -15 -22 0 -22 0 -3 -15 25 -19 34 -19
34 0 0 8 7 15 15 15 8 0 15 7 15 15 0 8 -2 15 -4 15 -3 0 -11 -7 -20 -15z"/>
<path d="M7420 6240 c-9 -6 -10 -10 -3 -10 6 0 15 5 18 10 8 12 4 12 -15 0z"/>
<path d="M7180 6180 c-8 -5 -26 -7 -40 -3 l-25 5 23 -23 22 -23 22 22 c23 23
22 37 -2 22z"/>
<path d="M7230 6180 c0 -5 7 -10 16 -10 8 0 12 5 9 10 -3 6 -10 10 -16 10 -5
0 -9 -4 -9 -10z"/>
<path d="M7280 6180 c0 -5 5 -10 11 -10 5 0 7 5 4 10 -3 6 -8 10 -11 10 -2 0
-4 -4 -4 -10z"/>
<path d="M7254 6120 c3 -14 6 -28 6 -32 0 -5 5 -8 10 -8 15 0 12 22 -7 45 -15
20 -15 19 -9 -5z"/>
<path d="M6765 6120 c-3 -5 -1 -10 4 -10 6 0 11 5 11 10 0 6 -2 10 -4 10 -3 0
-8 -4 -11 -10z"/>
<path d="M7425 6070 c-3 -5 -1 -10 4 -10 6 0 11 5 11 10 0 6 -2 10 -4 10 -3 0
-8 -4 -11 -10z"/>
<path d="M7460 6033 c0 -7 9 -22 20 -33 26 -26 26 -9 0 21 -10 13 -19 18 -20
12z"/>
<path d="M7601 6024 c0 -11 3 -14 6 -6 3 7 2 16 -1 19 -3 4 -6 -2 -5 -13z"/>
<path d="M6520 6011 c0 -5 7 -12 16 -15 22 -9 24 -8 24 9 0 8 -9 15 -20 15
-11 0 -20 -4 -20 -9z"/>
<path d="M7520 6010 c0 -5 5 -10 11 -10 5 0 7 5 4 10 -3 6 -8 10 -11 10 -2 0
-4 -4 -4 -10z"/>
<path d="M7760 6010 c0 -5 7 -10 15 -10 8 0 15 5 15 10 0 6 -7 10 -15 10 -8 0
-15 -4 -15 -10z"/>
<path d="M7135 5971 c3 -5 1 -12 -5 -16 -5 -3 -10 -1 -10 6 0 7 -2 10 -5 8 -2
-3 -2 -14 1 -26 4 -14 11 -20 21 -16 12 5 14 0 8 -25 -5 -26 -3 -32 10 -32 11
0 15 5 11 15 -3 10 1 15 12 15 13 1 10 7 -12 25 -25 20 -28 26 -17 39 11 14
11 16 -3 16 -10 0 -15 -4 -11 -9z"/>
<path d="M7375 5970 c3 -5 8 -10 11 -10 2 0 4 5 4 10 0 6 -5 10 -11 10 -5 0
-7 -4 -4 -10z"/>
<path d="M7792 5969 c2 -6 8 -10 13 -10 5 0 11 4 13 10 2 6 -4 11 -13 11 -9 0
-15 -5 -13 -11z"/>
<path d="M7056 5962 c-7 -11 27 -75 42 -80 15 -5 16 34 2 43 -5 3 -10 15 -10
26 0 19 -24 27 -34 11z"/>
<path d="M7476 5961 c-3 -5 1 -14 8 -20 16 -13 32 2 21 19 -8 12 -22 13 -29 1z"/>
<path d="M7271 5934 c0 -11 3 -14 6 -6 3 7 2 16 -1 19 -3 4 -6 -2 -5 -13z"/>
<path d="M7480 5911 c0 -19 34 -30 48 -15 7 8 11 14 10 15 -27 8 -58 7 -58 0z"/>
<path d="M7057 5859 c-9 -6 -17 -14 -17 -19 0 -17 27 -11 34 6 8 22 5 25 -17
13z"/>
<path d="M7220 5860 c0 -5 5 -10 10 -10 6 0 10 5 10 10 0 6 -4 10 -10 10 -5 0
-10 -4 -10 -10z"/>
<path d="M7165 5840 c3 -5 10 -10 16 -10 5 0 9 5 9 10 0 6 -7 10 -16 10 -8 0
-12 -4 -9 -10z"/>
<path d="M7160 5806 c0 -10 9 -16 21 -16 24 0 21 23 -4 28 -10 2 -17 -3 -17
-12z"/>
<path d="M7225 5790 c-3 -5 -2 -10 4 -10 5 0 13 5 16 10 3 6 2 10 -4 10 -5 0
-13 -4 -16 -10z"/>
<path d="M6265 5750 c3 -5 10 -10 16 -10 5 0 9 5 9 10 0 6 -7 10 -16 10 -8 0
-12 -4 -9 -10z"/>
<path d="M7250 5736 c0 -2 6 -9 14 -15 10 -9 15 -8 20 4 4 10 -1 15 -14 15
-11 0 -20 -2 -20 -4z"/>
<path d="M6240 5658 c0 -16 5 -28 10 -28 13 0 13 20 0 40 -8 12 -10 9 -10 -12z"/>
<path d="M7715 5661 c-6 -11 9 -23 19 -14 9 9 7 23 -3 23 -6 0 -12 -4 -16 -9z"/>
<path d="M7085 5410 c4 -6 11 -8 16 -5 14 9 11 15 -7 15 -8 0 -12 -5 -9 -10z"/>
<path d="M6624 5389 c-3 -6 -1 -16 5 -22 8 -8 11 -5 11 11 0 24 -5 28 -16 11z"/>
<path d="M6580 5350 c0 -5 5 -10 10 -10 6 0 10 5 10 10 0 6 -4 10 -10 10 -5 0
-10 -4 -10 -10z"/>
<path d="M6680 5271 c-13 -26 -13 -41 3 -41 24 0 36 16 30 38 -7 27 -19 28
-33 3z"/>
<path d="M7470 5201 c0 -5 -3 -18 -6 -28 -6 -16 -5 -16 9 2 19 23 21 35 7 35
-5 0 -10 -4 -10 -9z"/>
<path d="M6740 5156 c0 -9 7 -16 16 -16 9 0 14 5 12 12 -6 18 -28 21 -28 4z"/>
<path d="M7030 5130 c-13 -8 -12 -10 3 -10 9 0 17 5 17 10 0 12 -1 12 -20 0z"/>
<path d="M6701 5109 c14 -13 29 -32 32 -41 4 -10 11 -18 17 -18 5 0 10 -9 10
-20 0 -25 -8 -25 -33 -2 -20 16 -20 16 -14 -1 4 -10 7 -23 7 -28 0 -5 8 -8 18
-7 9 1 36 0 60 0 35 -2 42 -5 42 -22 0 -12 5 -17 14 -14 7 3 16 -1 19 -9 4
-11 0 -13 -14 -10 -11 3 -19 0 -19 -7 0 -10 -3 -10 -15 0 -8 7 -15 19 -15 26
0 8 -7 14 -15 14 -8 0 -15 -4 -15 -10 0 -5 5 -10 11 -10 5 0 7 -5 4 -10 -3 -6
1 -17 9 -26 12 -11 13 -20 6 -34 -11 -20 8 -43 30 -38 7 2 15 -3 17 -9 3 -8
-4 -13 -17 -13 -16 0 -20 -4 -16 -16 3 -9 6 -18 6 -21 0 -3 6 -1 13 5 8 7 18
7 27 2 13 -8 12 -10 -2 -10 -12 0 -18 -8 -18 -21 0 -17 3 -19 14 -10 11 9 15
8 20 -5 3 -9 2 -22 -4 -29 -12 -15 -3 -25 25 -25 11 0 26 -5 33 -12 15 -15 43
7 35 28 -3 7 2 16 10 20 9 3 13 12 10 21 -5 11 -1 14 13 9 10 -3 26 -1 34 4 8
5 12 10 8 10 -11 0 49 60 61 60 6 0 11 5 11 10 0 20 -24 36 -46 32 -28 -5 -38
12 -22 39 10 17 10 23 1 26 -7 3 -13 11 -13 18 0 7 -5 15 -11 17 -16 5 -2 48
15 48 8 0 20 -8 27 -17 13 -15 12 -16 -8 -11 -29 8 -30 -3 -3 -20 12 -7 18
-17 15 -22 -4 -6 6 -10 22 -10 24 1 26 2 10 11 -15 9 -16 13 -6 26 10 12 10
16 -2 23 -8 5 -15 23 -15 40 -3 60 -3 61 -26 58 -12 -2 -23 -9 -26 -16 -2 -8
2 -10 13 -6 13 5 16 2 13 -12 -2 -11 -13 -20 -26 -22 -22 -3 -25 -8 -26 -52
-1 -23 -6 -25 -48 -28 -42 -3 -48 0 -71 30 -33 46 -39 65 -22 82 20 20 19 26
-5 26 -11 0 -29 5 -39 12 -11 6 -26 8 -37 3 -11 -5 -23 -7 -29 -6 -5 2 -17 4
-25 6 -8 2 -24 7 -35 11 -16 6 -15 3 6 -17z m112 -52 c-5 -8 -8 -8 -11 1 -2 7
-10 12 -18 12 -9 0 -12 5 -9 10 4 7 13 7 26 0 11 -6 16 -16 12 -23z m-16 -49
c-3 -7 -5 -2 -5 12 0 14 2 19 5 13 2 -7 2 -19 0 -25z m105 -120 c2 -20 0 -34
-4 -32 -4 3 -8 24 -7 47 1 47 6 41 11 -15z m73 13 c3 -5 1 -12 -5 -16 -5 -3
-10 1 -10 9 0 18 6 21 15 7z m95 -45 c0 -2 -7 -6 -15 -10 -8 -3 -15 -1 -15 4
0 6 7 10 15 10 8 0 15 -2 15 -4z m-33 -58 c-3 -8 -6 -5 -6 6 -1 11 2 17 5 13
3 -3 4 -12 1 -19z"/>
<path d="M7442 5115 c-11 -12 -10 -15 3 -15 8 0 15 -8 15 -17 0 -11 3 -14 10
-7 10 10 3 54 -9 54 -3 -1 -12 -7 -19 -15z"/>
<path d="M6980 5075 c0 -9 5 -15 11 -13 6 2 11 8 11 13 0 5 -5 11 -11 13 -6 2
-11 -4 -11 -13z"/>
<path d="M7100 5036 c0 -9 5 -16 10 -16 6 0 10 4 10 9 0 6 -4 13 -10 16 -5 3
-10 -1 -10 -9z"/>
<path d="M6880 5027 c0 -21 48 -57 66 -50 23 8 35 38 22 51 -17 17 -41 15 -34
-3 7 -19 1 -19 -29 1 -22 14 -25 15 -25 1z"/>
<path d="M7146 4996 c10 -8 21 -12 24 -10 5 6 -21 24 -34 24 -6 0 -1 -6 10
-14z"/>
<path d="M7135 4950 c-3 -5 -1 -10 4 -10 6 0 11 5 11 10 0 6 -2 10 -4 10 -3 0
-8 -4 -11 -10z"/>
<path d="M1670 4881 c-46 -10 -75 -26 -94 -53 -22 -31 -20 -42 14 -79 16 -18
27 -36 24 -41 -3 -4 1 -8 8 -8 11 0 47 -50 47 -65 1 -33 130 -175 158 -175 7
0 13 -4 13 -8 0 -5 18 -18 40 -31 22 -12 40 -20 40 -17 0 3 12 1 28 -5 39 -16
201 -48 243 -49 63 0 104 24 128 74 11 25 21 57 21 70 0 14 4 27 8 30 5 3 4
33 -2 67 -9 46 -20 71 -46 101 -34 39 -124 90 -165 93 -11 1 -38 9 -60 18 -22
9 -59 21 -82 27 -24 6 -43 15 -43 19 0 21 -216 45 -280 32z"/>
<path d="M4270 4713 c-10 -7 -40 -15 -67 -18 -26 -3 -65 -9 -85 -14 -21 -5
-38 -6 -38 -3 0 3 -5 1 -12 -6 -7 -7 -20 -12 -30 -12 -9 0 -32 -8 -50 -18 -18
-10 -59 -26 -90 -35 -32 -10 -70 -29 -86 -42 -16 -14 -32 -22 -35 -19 -7 7
-67 -27 -67 -38 0 -4 -9 -8 -19 -8 -11 0 -23 -9 -26 -20 -3 -11 -13 -20 -21
-20 -23 0 -63 -41 -69 -71 -4 -16 -11 -31 -16 -34 -15 -10 -10 -35 6 -35 9 0
14 -8 12 -22 -2 -19 2 -23 21 -20 16 1 25 -4 29 -17 4 -14 18 -20 61 -25 31
-3 82 -11 112 -16 30 -6 70 -12 88 -14 18 -3 50 -7 70 -10 87 -13 288 -4 306
14 5 5 20 10 33 10 13 0 23 4 23 8 0 5 30 18 68 30 109 34 146 49 150 61 2 6
12 11 23 11 11 0 22 7 25 15 4 8 13 15 20 15 8 0 17 7 20 15 4 8 10 15 15 15
6 0 27 18 49 40 21 21 50 42 64 46 15 3 29 10 32 15 3 5 14 9 24 9 23 0 91 57
89 74 -1 6 1 19 6 29 9 20 -11 48 -29 41 -7 -3 -33 0 -57 6 -24 6 -71 18 -104
26 -33 9 -91 19 -130 24 -231 29 -289 31 -315 13z m-34 -104 c3 -6 17 -8 29
-5 17 4 35 -4 67 -30 41 -34 67 -74 49 -74 -4 0 -35 13 -67 30 -32 16 -66 30
-74 30 -28 1 -42 17 -35 39 7 23 20 27 31 10z"/>
<path d="M952 4010 c0 -14 2 -19 5 -12 2 6 2 18 0 25 -3 6 -5 1 -5 -13z"/>
<path d="M950 3940 c0 -29 4 -40 15 -40 11 0 15 11 15 40 0 29 -4 40 -15 40
-11 0 -15 -11 -15 -40z"/>
<path d="M946 3808 c-3 -35 -7 -74 -9 -88 -2 -14 -12 -114 -22 -223 -16 -172
-17 -204 -5 -250 8 -29 15 -95 16 -147 5 -194 4 -531 -1 -540 -3 -4 -6 -39 -6
-76 -1 -37 -9 -91 -18 -120 -28 -84 -10 -197 50 -310 15 -28 39 -91 54 -140
15 -49 31 -91 35 -94 3 -3 18 -36 32 -75 39 -105 45 -124 68 -202 20 -69 51
-110 72 -97 12 8 206 18 308 16 47 0 384 -3 750 -6 541 -4 684 -2 765 9 55 8
136 17 180 20 44 3 116 9 160 14 68 7 301 1 495 -12 30 -2 49 -2 43 0 -20 7
-15 20 8 26 15 4 28 -2 44 -19 23 -25 27 -25 153 -25 143 1 162 5 162 31 0 29
11 50 26 50 8 0 14 8 14 18 0 9 14 28 31 42 17 14 37 31 44 37 8 7 20 13 29
13 8 0 18 5 22 11 3 6 15 9 25 6 10 -3 21 -1 24 4 3 4 20 6 37 2 29 -6 30 -5
26 23 -3 16 -3 23 -1 16 3 -8 11 -11 20 -8 8 3 17 6 19 6 2 0 4 23 4 51 0 46
2 50 23 49 12 -1 28 -2 35 -1 14 1 17 21 2 21 -13 0 -60 41 -60 52 0 4 9 8 20
8 15 0 20 7 20 25 0 23 -4 25 -40 25 -33 0 -40 3 -40 20 0 17 5 19 25 14 20
-5 25 -2 30 19 4 14 2 34 -4 45 -9 17 -8 22 9 27 27 9 25 39 -2 53 -23 11 -23
11 3 11 20 1 30 9 39 31 14 34 18 35 46 15 20 -13 21 -13 16 10 -6 32 19 34
42 3 l16 -23 -2 29 c-2 17 2 31 10 33 6 3 12 0 12 -6 0 -14 37 -14 42 0 2 6
18 17 36 25 28 12 34 11 38 -1 4 -8 13 -15 22 -15 12 0 13 3 4 12 -22 22 -13
28 28 22 32 -5 40 -3 40 9 0 19 31 27 76 20 22 -4 34 -2 34 6 0 7 9 9 24 5 13
-3 32 -1 43 4 14 8 24 5 42 -9 26 -22 52 -25 47 -6 -1 6 -1 9 1 5 8 -14 31 -9
37 8 4 11 10 13 22 6 13 -7 24 -3 46 16 15 14 28 29 28 34 0 13 -48 9 -52 -4
-3 -8 -6 -9 -11 -1 -4 6 7 16 26 24 17 7 34 14 36 15 1 2 -9 15 -23 31 l-26
28 0 -29 c0 -24 -2 -27 -15 -16 -18 15 -20 40 -3 40 24 0 -8 20 -37 24 -17 2
-38 7 -49 11 -11 5 -26 3 -37 -3 -25 -16 -32 -15 -25 3 3 10 -1 15 -14 15 -10
0 -22 4 -25 10 -3 5 -28 7 -55 5 -46 -5 -53 -3 -89 30 -21 19 -44 35 -50 35
-6 0 -11 7 -11 15 0 8 -9 15 -20 15 -11 0 -20 5 -20 11 0 7 10 9 25 7 32 -7
32 -3 -7 33 -18 16 -26 29 -19 29 9 0 10 4 4 13 -6 6 -15 26 -21 42 l-10 30
-1 -32 c-1 -26 -5 -33 -20 -33 -11 0 -23 -4 -26 -10 -10 -15 -35 -12 -35 5 0
8 9 15 19 15 20 0 37 17 28 26 -3 3 -18 7 -33 9 -16 2 -31 4 -34 4 -3 1 2 6
10 11 11 7 4 10 -27 10 -24 0 -43 -4 -43 -10 0 -5 -16 7 -35 28 -27 28 -37 34
-43 24 -7 -11 -11 -10 -16 4 -4 10 -1 21 6 25 8 5 -1 20 -31 49 -24 22 -42 43
-39 46 7 7 58 -17 58 -28 0 -4 5 -8 10 -8 6 0 10 7 10 15 0 21 27 19 47 -5 11
-13 24 -18 39 -14 13 3 37 -1 54 -9 41 -21 96 -12 104 16 7 28 5 29 -51 32
-49 3 -60 13 -48 43 6 15 8 15 15 -3 7 -16 9 -17 9 -3 2 31 -10 49 -24 38 -8
-6 -33 -11 -56 -12 -34 0 -47 5 -63 25 -12 14 -30 27 -41 29 -12 2 -20 11 -20
23 0 21 -33 34 -44 17 -9 -14 -81 -25 -81 -12 0 6 -19 1 -43 -11 -23 -13 -49
-26 -57 -29 -23 -11 -24 -38 -1 -45 12 -3 21 -12 21 -19 0 -8 20 -19 44 -25
41 -10 72 -31 46 -31 -6 0 -4 -8 6 -17 16 -17 16 -18 1 -21 -20 -4 -22 -13 -6
-29 7 -7 6 -12 -6 -17 -10 -4 -14 -2 -9 5 4 6 0 15 -7 20 -12 8 -12 11 1 19
12 7 12 12 3 21 -10 10 -18 10 -38 1 -33 -15 -35 -15 -35 3 0 19 -16 19 -24 0
-3 -9 0 -15 7 -15 7 0 22 -6 32 -14 17 -12 17 -14 2 -37 -16 -23 -17 -23 -17
-3 0 18 -6 21 -40 20 -22 0 -40 -4 -40 -8 0 -5 5 -8 11 -8 5 0 7 -5 3 -11 -5
-8 -8 -8 -13 0 -5 7 -19 5 -45 -8 -20 -11 -55 -22 -77 -26 -29 -5 -39 -11 -39
-26 0 -24 -19 -25 -35 -2 -12 16 -14 16 -29 0 -22 -21 -26 -21 -42 1 -10 14
-15 15 -25 5 -21 -21 -32 -15 -27 16 4 26 2 29 -14 20 -10 -5 -18 -19 -18 -29
0 -15 -7 -20 -25 -20 -19 0 -23 4 -19 18 5 16 5 16 -6 0 -10 -17 -13 -17 -42
-2 -18 9 -33 12 -37 6 -12 -17 -80 -22 -96 -6 -18 18 -37 10 -33 -14 2 -11 -2
-15 -12 -13 -8 3 -34 6 -57 9 -44 4 -60 -11 -22 -21 24 -6 21 -30 -4 -35 -11
-2 -17 3 -17 13 0 17 -18 17 -64 -1 -10 -4 -16 -1 -16 7 0 8 -6 5 -14 -7 -14
-18 -15 -18 -28 -1 -8 10 -18 18 -23 17 -29 -6 -75 2 -89 15 -8 8 -24 15 -36
15 -12 0 -18 4 -15 10 4 6 -3 6 -21 0 -37 -14 -102 -9 -109 8 -3 10 -15 13
-36 10 -20 -3 -34 1 -42 11 -7 9 -25 22 -41 29 -25 11 -28 11 -22 -3 5 -14 2
-14 -24 2 -17 9 -30 21 -30 25 0 4 -7 8 -15 8 -8 0 -15 5 -15 10 0 6 -6 10
-14 10 -29 0 -27 20 3 26 17 4 28 10 26 14 -3 5 -15 6 -28 3 l-22 -6 23 24
c18 19 25 22 41 12 14 -9 23 -7 47 12 32 26 26 47 -8 26 -16 -10 -22 -10 -28
-1 -4 7 -14 10 -21 8 -8 -3 -20 1 -27 9 -7 7 -27 13 -43 13 -16 0 -29 5 -29
10 0 6 5 10 11 10 5 0 7 5 4 11 -4 6 -10 8 -13 5 -3 -3 -13 1 -23 10 -11 10
-19 12 -24 5 -7 -13 -35 10 -35 29 0 7 -6 10 -13 7 -8 -3 -25 8 -38 24 -13 16
-31 29 -40 29 -26 0 -41 47 -34 105 l7 51 76 19 c43 10 94 26 115 36 21 10 45
15 53 12 8 -3 18 4 23 18 5 13 10 20 10 15 1 -5 12 1 25 14 15 13 31 20 41 16
12 -4 15 -1 11 12 -4 12 3 21 24 30 33 15 40 46 13 56 -13 5 -14 9 -5 15 9 5
-1 14 -28 26 -23 10 -54 34 -70 53 -18 22 -34 33 -43 29 -10 -4 -19 4 -27 24
-9 21 -19 29 -38 29 -14 0 -33 7 -43 16 -14 12 -39 16 -108 16 -98 0 -136 -15
-147 -58 -3 -13 -9 -22 -13 -21 -3 1 -19 -8 -34 -19 -20 -16 -28 -33 -31 -65
-4 -46 -19 -62 -30 -32 -5 11 -1 22 10 30 15 11 14 14 -9 35 -13 13 -31 39
-40 58 -8 19 -35 55 -61 78 l-47 44 -49 -12 c-28 -7 -47 -16 -44 -21 5 -9 -8
-13 -38 -10 -12 2 -18 -5 -18 -18 0 -12 -4 -21 -8 -21 -4 0 -16 -14 -26 -30
-14 -24 -15 -37 -8 -63 6 -17 13 -56 16 -86 4 -44 11 -58 36 -79 16 -14 30
-32 30 -41 0 -9 14 -27 30 -40 27 -21 70 -97 70 -123 0 -13 26 -38 39 -38 14
0 14 -17 1 -25 -6 -4 -10 -27 -8 -52 3 -51 3 -51 -87 -57 -54 -4 -85 -15 -85
-32 0 -7 -10 -19 -22 -25 -17 -9 -24 -9 -33 5 -15 20 -25 21 -25 1 0 -8 5 -15
10 -15 6 0 10 -4 10 -10 0 -6 -31 -10 -73 -10 -72 0 -73 0 -86 33 l-14 32 -5
-30 c-4 -26 -5 -27 -12 -10 -5 13 -2 26 8 38 14 16 13 17 -7 17 -12 0 -30 7
-38 16 -11 11 -26 14 -49 10 -27 -6 -34 -3 -39 14 -3 11 -11 20 -16 20 -5 0
-9 9 -9 21 0 15 -5 19 -15 15 -20 -7 -47 22 -40 45 4 13 2 19 -8 19 -8 0 -20
14 -27 31 -10 22 -15 27 -21 17 -14 -22 -10 -47 11 -68 11 -11 20 -22 20 -25
0 -3 -9 -1 -20 5 -11 6 -20 17 -20 25 0 8 -7 15 -15 15 -8 0 -13 6 -11 13 3 6
7 24 10 40 4 15 13 27 21 27 8 0 15 7 15 15 0 8 -7 15 -15 15 -8 0 -15 -7 -15
-15 0 -8 -7 -15 -15 -15 -8 0 -15 7 -15 15 0 8 4 15 9 15 5 0 -2 26 -15 58
-13 31 -27 56 -31 55 -5 -1 -16 -5 -25 -8 -13 -5 -18 -2 -18 9 0 9 5 16 11 16
6 0 9 6 6 13 -2 6 -10 11 -17 9 -7 -2 -28 12 -47 29 l-33 33 -1 -30 c-1 -28
-1 -28 -8 -4 -6 21 -13 25 -42 23 -29 -2 -30 -1 -9 5 37 11 7 26 -36 18 -21
-4 -34 -3 -34 4 0 5 12 10 28 11 24 0 25 1 7 9 -38 16 -65 11 -77 -15 -17 -38
-31 -30 -25 15 4 30 2 40 -9 40 -8 0 -14 -10 -14 -22 0 -13 -5 -30 -10 -38 -8
-13 -10 -13 -10 -1 0 11 -6 9 -20 -7 -11 -11 -17 -28 -14 -36 3 -9 -6 -23 -25
-37 -28 -20 -30 -27 -25 -58 4 -20 18 -45 31 -56 29 -26 31 -65 3 -65 -10 0
-23 8 -29 17 -5 10 -13 15 -16 11 -4 -4 2 -17 14 -29 24 -26 25 -33 11 -60 -8
-14 -7 -19 1 -19 9 0 9 -3 0 -14 -6 -7 -8 -22 -4 -31 4 -13 3 -16 -5 -11 -7 4
-15 1 -18 -8 -7 -19 -41 -21 -46 -4 -3 7 -15 13 -29 13 -20 0 -24 5 -24 28 1
15 -4 27 -9 27 -5 0 -6 3 -3 6 3 4 1 16 -5 28 -14 25 -17 118 -4 128 6 4 5 12
-2 21 -9 11 -9 22 -1 46 7 19 9 56 5 89 -7 64 -8 170 -2 222 4 35 -7 70 -23
70 -5 0 -11 -28 -15 -62z m1444 -72 c0 -9 -30 -14 -35 -6 -4 6 3 10 14 10 12
0 21 -2 21 -4z m38 -112 c2 -9 -1 -21 -7 -27 -15 -15 -41 10 -41 39 0 15 -6
24 -16 24 -8 0 -12 5 -9 10 9 14 69 -23 73 -46z m112 20 c0 -9 -5 -14 -12 -12
-18 6 -21 28 -4 28 9 0 16 -7 16 -16z m-1263 -86 c-3 -8 -6 -5 -6 6 -1 11 2
17 5 13 3 -3 4 -12 1 -19z m-97 -258 c0 -5 -2 -10 -4 -10 -3 0 -8 5 -11 10 -3
6 -1 10 4 10 6 0 11 -4 11 -10z m-140 -130 c0 -5 -2 -10 -4 -10 -3 0 -8 5 -11
10 -3 6 -1 10 4 10 6 0 11 -4 11 -10z m1190 -109 c-26 -14 -70 -22 -70 -12 0
10 26 17 65 19 16 1 17 0 5 -7z m630 -11 c0 -5 -4 -10 -9 -10 -6 0 -13 5 -16
10 -3 6 1 10 9 10 9 0 16 -4 16 -10z m1624 -15 c-4 -8 -18 -15 -33 -14 l-26 1
30 13 c17 8 31 14 32 15 1 0 0 -7 -3 -15z m60 -84 c3 -5 -1 -11 -9 -15 -9 -3
-15 0 -15 9 0 16 16 20 24 6z m249 -18 c-7 -2 -19 -2 -25 0 -7 3 -2 5 12 5 14
0 19 -2 13 -5z m-237 -50 c-11 -11 -19 6 -11 24 8 17 8 17 12 0 3 -10 2 -21
-1 -24z m-3476 -113 c0 -5 -4 -10 -10 -10 -5 0 -10 5 -10 10 0 6 5 10 10 10 6
0 10 -4 10 -10z m2705 -11 c23 -5 34 -39 11 -39 -20 0 -46 27 -46 48 0 11 3
13 8 6 4 -7 16 -13 27 -15z m-90 -29 c3 -5 1 -10 -4 -10 -6 0 -11 5 -11 10 0
6 2 10 4 10 3 0 8 -4 11 -10z m1085 -21 c0 -5 -7 -9 -15 -9 -15 0 -20 12 -9
23 8 8 24 -1 24 -14z m-860 -9 c0 -5 -2 -10 -4 -10 -3 0 -8 5 -11 10 -3 6 -1
10 4 10 6 0 11 -4 11 -10z m207 -6 c-3 -3 -12 -4 -19 -1 -8 3 -5 6 6 6 11 1
17 -2 13 -5z m-3075 -59 c-6 -34 -12 -32 -12 6 0 16 4 28 9 25 4 -3 6 -17 3
-31z m3034 20 c9 -8 11 -15 6 -15 -5 0 -15 7 -22 15 -7 8 -9 15 -6 15 4 0 14
-7 22 -15z m814 -7 c0 -13 -23 -5 -28 10 -2 7 2 10 12 6 9 -3 16 -11 16 -16z
m-3465 -103 c32 -6 36 -9 22 -16 -9 -6 -17 -15 -17 -20 0 -6 4 -8 9 -4 5 3 12
1 16 -4 9 -16 66 -41 92 -41 12 0 23 -6 23 -12 1 -7 6 -3 13 8 9 16 17 19 32
13 19 -7 19 -8 -2 -8 -26 -1 -29 -11 -11 -29 9 -9 9 -15 0 -24 -16 -16 -15
-28 3 -28 8 0 15 -4 15 -10 0 -5 7 -10 16 -10 10 0 14 6 10 15 -6 17 20 20 44
6 12 -8 9 -14 -13 -37 -28 -28 -34 -44 -17 -44 6 0 10 7 10 16 0 9 6 14 13 12
7 -3 13 -26 15 -54 2 -27 6 -51 10 -54 19 -13 42 -62 42 -87 0 -16 -8 -36 -18
-44 -16 -14 -18 -24 -12 -70 6 -40 3 -62 -8 -84 -11 -21 -11 -30 -3 -33 9 -3
9 -7 1 -17 -8 -10 -27 -12 -66 -8 l-54 6 0 -42 c0 -22 -4 -41 -10 -41 -5 0
-10 5 -10 10 0 14 -37 13 -42 -2 -3 -8 -9 -8 -24 0 -10 6 -13 12 -6 12 6 0 12
5 12 10 0 6 -18 10 -40 10 -22 0 -40 -4 -40 -10 0 -5 5 -10 10 -10 6 0 5 -6
-2 -14 -10 -10 -17 -11 -30 -2 -14 8 -23 7 -39 -2 -16 -10 -24 -11 -33 -2 -8
8 -7 13 4 20 13 9 13 11 0 19 -12 8 -12 13 0 35 7 14 19 26 27 26 9 0 13 13
13 40 0 29 -4 40 -15 40 -8 0 -15 -7 -15 -16 0 -9 -18 -34 -40 -56 -22 -22
-40 -34 -40 -27 0 21 -40 43 -53 30 -6 -6 -18 -11 -26 -11 -11 0 -10 4 4 20
17 19 17 21 0 40 -10 11 -22 20 -27 20 -5 0 -14 5 -21 11 -7 5 -27 19 -44 29
-35 21 -43 40 -18 40 11 0 15 11 15 39 0 34 4 41 30 53 17 7 30 16 30 20 0 11
-42 21 -49 11 -3 -6 -31 -13 -61 -16 -47 -5 -52 -4 -37 7 23 18 22 36 -4 36
-11 0 -19 5 -17 12 5 14 38 20 38 7 0 -5 7 -9 15 -9 8 0 15 7 15 15 0 8 -7 15
-15 15 -9 0 -15 9 -15 21 0 14 -5 19 -15 16 -8 -4 -17 -2 -20 3 -4 6 -1 10 5
10 6 0 10 17 10 43 -2 38 16 197 22 203 5 5 78 -66 78 -75 0 -5 5 -11 11 -13
17 -6 1 -158 -17 -158 -8 0 -14 5 -14 10 0 6 -7 10 -15 10 -8 0 -15 -4 -15
-10 0 -5 5 -10 10 -10 6 0 10 -7 10 -15 0 -8 7 -15 15 -15 8 0 15 -7 15 -15 0
-18 2 -18 34 -3 16 7 23 15 17 22 -10 13 9 186 21 186 4 0 8 5 8 10 0 11 60
69 72 70 4 0 8 -10 10 -22 3 -21 4 -21 33 9 21 22 37 30 55 27 14 -2 43 -6 65
-9z m242 -91 c-3 -3 -12 -4 -19 -1 -8 3 -5 6 6 6 11 1 17 -2 13 -5z m-610
-376 c-2 -13 -4 -3 -4 22 0 25 2 35 4 23 2 -13 2 -33 0 -45z m3508 -26 c-3 -3
-11 0 -18 7 -9 10 -8 11 6 5 10 -3 15 -9 12 -12z m-3473 -84 c-9 -9 -15 -9
-24 0 -9 9 -7 12 12 12 19 0 21 -3 12 -12z m68 -28 c0 -5 -4 -10 -10 -10 -5 0
-10 5 -10 10 0 6 5 10 10 10 6 0 10 -4 10 -10z m110 -150 c0 -5 -7 -10 -15
-10 -8 0 -15 5 -15 10 0 6 7 10 15 10 8 0 15 -4 15 -10z m460 -10 c0 -5 -4
-10 -10 -10 -5 0 -10 5 -10 10 0 6 5 10 10 10 6 0 10 -4 10 -10z m-92 -59 c-5
-22 -28 -20 -44 5 -13 19 -13 20 16 16 22 -3 30 -9 28 -21z m84 7 c-9 -9 -15
-9 -24 0 -9 9 -7 12 12 12 19 0 21 -3 12 -12z m-2 -83 c0 -8 -7 -15 -15 -15
-16 0 -20 12 -8 23 11 12 23 8 23 -8z m-80 -35 c0 -5 -4 -10 -10 -10 -5 0 -10
5 -10 10 0 6 5 10 10 10 6 0 10 -4 10 -10z m2207 -106 c-3 -3 -12 -4 -19 -1
-8 3 -5 6 6 6 11 1 17 -2 13 -5z"/>
<path d="M1105 2430 c-3 -5 -1 -10 4 -10 6 0 11 5 11 10 0 6 -2 10 -4 10 -3 0
-8 -4 -11 -10z"/>
<path d="M1467 2425 c-8 -18 11 -31 25 -17 11 11 3 32 -12 32 -4 0 -10 -7 -13
-15z"/>
<path d="M1440 2369 c0 -5 5 -7 10 -4 6 3 10 8 10 11 0 2 -4 4 -10 4 -5 0 -10
-5 -10 -11z"/>
<path d="M1530 2356 c0 -27 15 -42 25 -26 8 13 -3 50 -16 50 -5 0 -9 -11 -9
-24z"/>
<path d="M1496 2304 c-11 -7 -16 -17 -13 -21 4 -4 15 1 24 10 22 21 14 30 -11
11z"/>
<path d="M1306 2235 c-4 -10 1 -15 14 -15 13 0 18 5 14 15 -4 8 -10 15 -14 15
-4 0 -10 -7 -14 -15z"/>
<path d="M1680 2193 c1 -27 1 -27 15 -9 19 25 19 36 0 36 -10 0 -15 -10 -15
-27z"/>
<path d="M1215 2170 c-8 -13 25 -21 43 -10 10 5 13 10 7 10 -5 1 -18 3 -27 5
-10 2 -20 0 -23 -5z"/>
<path d="M1495 2150 c-3 -5 1 -10 9 -10 9 0 16 5 16 10 0 6 -4 10 -9 10 -6 0
-13 -4 -16 -10z"/>
<path d="M1201 2124 c0 -11 3 -14 6 -6 3 7 2 16 -1 19 -3 4 -6 -2 -5 -13z"/>
<path d="M1120 2086 c0 -24 2 -25 20 -14 23 15 21 31 -3 36 -12 3 -17 -4 -17
-22z"/>
<path d="M1462 2020 c0 -14 2 -19 5 -12 2 6 2 18 0 25 -3 6 -5 1 -5 -13z"/>
<path d="M1200 2002 c0 -19 36 -46 50 -37 10 6 -28 55 -42 55 -4 0 -8 -8 -8
-18z"/>
<path d="M1440 1979 c0 -11 4 -18 10 -14 5 3 7 12 3 20 -7 21 -13 19 -13 -6z"/>
<path d="M1627 1960 c-6 -23 3 -26 21 -8 16 16 15 28 -2 28 -7 0 -16 -9 -19
-20z"/>
<path d="M1264 1949 c-3 -6 -1 -16 5 -22 8 -8 11 -5 11 11 0 24 -5 28 -16 11z"/>
<path d="M1505 1910 c-3 -5 -1 -10 4 -10 6 0 11 5 11 10 0 6 -2 10 -4 10 -3 0
-8 -4 -11 -10z"/>
<path d="M1120 3771 c0 -6 5 -13 10 -16 6 -3 10 1 10 9 0 9 -4 16 -10 16 -5 0
-10 -4 -10 -9z"/>
<path d="M2516 3763 c-11 -11 -6 -23 9 -23 8 0 15 4 15 9 0 13 -16 22 -24 14z"/>
<path d="M1170 3750 c0 -5 5 -10 10 -10 6 0 10 5 10 10 0 6 -4 10 -10 10 -5 0
-10 -4 -10 -10z"/>
<path d="M7369 3755 c-1 -6 0 -18 1 -28 1 -10 -4 -26 -12 -35 -9 -11 -10 -14
0 -8 7 4 12 2 12 -8 0 -8 -6 -17 -12 -20 -7 -3 -4 -5 7 -3 16 2 21 11 23 46 2
24 -2 49 -7 54 -6 6 -11 7 -12 2z"/>
<path d="M7370 3620 c0 -5 5 -10 10 -10 6 0 10 5 10 10 0 6 -4 10 -10 10 -5 0
-10 -4 -10 -10z"/>
<path d="M7364 3444 c-9 -20 -23 -38 -31 -41 -8 -3 -11 -14 -7 -29 5 -19 2
-24 -12 -24 -11 0 -15 -3 -9 -8 11 -8 11 -79 -1 -126 -6 -26 -5 -28 15 -21 12
4 21 2 21 -4 0 -6 -4 -11 -10 -11 -13 0 -13 -40 0 -60 7 -11 5 -17 -8 -22 -12
-5 -10 -7 11 -7 29 -1 34 -10 15 -29 -8 -8 -8 -15 2 -27 10 -12 10 -15 0 -15
-17 0 -4 -13 15 -16 12 -2 15 9 15 46 0 27 -4 50 -9 52 -6 2 -6 49 0 118 18
225 20 260 15 260 -3 0 -13 -16 -22 -36z"/>
<path d="M1600 3435 c0 -8 7 -15 16 -15 14 0 14 3 4 15 -7 8 -14 15 -16 15 -2
0 -4 -7 -4 -15z"/>
<path d="M1080 3409 c0 -5 5 -7 10 -4 6 3 10 8 10 11 0 2 -4 4 -10 4 -5 0 -10
-5 -10 -11z"/>
<path d="M5225 3410 c3 -5 12 -10 20 -10 8 0 17 5 20 10 4 6 -5 10 -20 10 -15
0 -24 -4 -20 -10z"/>
<path d="M5220 3365 c-7 -9 -10 -19 -6 -22 8 -9 38 9 44 25 5 17 -23 15 -38
-3z"/>
<path d="M4720 3350 c0 -5 -18 -10 -40 -10 l-40 0 0 -40 0 -40 40 0 c40 0 40
0 40 -39 0 -22 -6 -42 -12 -45 -10 -5 -10 -7 0 -12 6 -3 12 -14 12 -24 0 -10
-6 -21 -12 -24 -10 -5 -10 -7 0 -12 6 -3 12 -12 12 -20 0 -23 17 -16 47 21 28
33 43 35 57 5 3 -8 4 -5 2 8 -3 17 1 22 15 22 11 0 24 -10 29 -22 8 -21 9 -20
9 10 1 29 3 32 20 22 11 -5 29 -10 40 -10 14 0 21 -6 21 -20 0 -11 5 -20 11
-20 6 0 8 9 4 20 -5 17 -2 20 25 20 27 0 30 -3 25 -20 -4 -11 -2 -20 4 -20 6
0 11 8 11 19 0 15 10 19 55 24 30 3 68 12 84 20 26 13 29 13 24 0 -5 -13 -3
-13 15 -2 16 10 18 16 10 27 -6 7 -17 11 -25 8 -19 -8 -29 23 -15 45 16 25
-15 45 -88 54 -34 5 -61 15 -71 26 -18 21 -49 25 -66 8 -8 -8 -17 -8 -30 0
-11 5 -44 7 -76 4 -41 -4 -57 -2 -57 6 0 8 -8 10 -20 6 -10 -3 -28 -1 -40 5
-13 7 -20 7 -20 0z m30 -176 c0 -14 -12 -19 -23 -8 -9 9 4 35 14 28 5 -3 9
-12 9 -20z m5 -64 c3 -5 -1 -10 -10 -10 -9 0 -13 5 -10 10 3 6 8 10 10 10 2 0
7 -4 10 -10z"/>
<path d="M5175 3330 c3 -5 10 -10 16 -10 5 0 9 5 9 10 0 6 -7 10 -16 10 -8 0
-12 -4 -9 -10z"/>
<path d="M1065 3320 c-3 -5 1 -10 10 -10 9 0 13 5 10 10 -3 6 -8 10 -10 10 -2
0 -7 -4 -10 -10z"/>
<path d="M5200 3284 c0 -8 5 -12 10 -9 6 4 8 11 5 16 -9 14 -15 11 -15 -7z"/>
<path d="M1715 3280 c-3 -5 -1 -10 4 -10 6 0 11 5 11 10 0 6 -2 10 -4 10 -3 0
-8 -4 -11 -10z"/>
<path d="M1070 3260 c-22 -6 -23 -8 -7 -15 20 -8 47 0 47 15 0 11 -4 11 -40 0z"/>
<path d="M4642 3158 c18 -26 48 -36 48 -16 0 20 -21 38 -43 38 -18 0 -18 -2
-5 -22z"/>
<path d="M4806 3075 c16 -25 34 -33 34 -17 0 10 -33 42 -44 42 -3 0 1 -11 10
-25z"/>
<path d="M5010 3026 c0 -2 7 -7 16 -10 8 -3 12 -2 9 4 -6 10 -25 14 -25 6z"/>
<path d="M4842 2994 c1 -9 9 -19 16 -22 9 -3 13 2 10 14 -1 9 -9 19 -16 22 -9
3 -13 -2 -10 -14z"/>
<path d="M7375 2980 c3 -5 8 -10 11 -10 2 0 4 5 4 10 0 6 -5 10 -11 10 -5 0
-7 -4 -4 -10z"/>
<path d="M3010 2936 c0 -2 7 -6 15 -10 8 -3 15 -1 15 4 0 6 -7 10 -15 10 -8 0
-15 -2 -15 -4z"/>
<path d="M7370 2930 c0 -5 5 -10 10 -10 6 0 10 5 10 10 0 6 -4 10 -10 10 -5 0
-10 -4 -10 -10z"/>
<path d="M3220 2849 c0 -5 5 -7 10 -4 6 3 10 8 10 11 0 2 -4 4 -10 4 -5 0 -10
-5 -10 -11z"/>
<path d="M3280 2840 c0 -5 5 -10 10 -10 6 0 10 5 10 10 0 6 -4 10 -10 10 -5 0
-10 -4 -10 -10z"/>
<path d="M3340 2831 c0 -6 5 -13 10 -16 6 -3 10 1 10 9 0 9 -4 16 -10 16 -5 0
-10 -4 -10 -9z"/>
<path d="M4077 2819 c4 -13 8 -18 11 -10 2 7 -1 18 -6 23 -8 8 -9 4 -5 -13z"/>
<path d="M3230 2817 c0 -19 16 -31 24 -18 3 5 -1 14 -9 21 -12 10 -15 10 -15
-3z"/>
<path d="M3487 2824 c-10 -11 3 -24 23 -24 13 0 17 5 14 15 -6 15 -26 20 -37
9z"/>
<path d="M7417 2789 c-18 -20 -18 -21 2 -14 12 4 21 2 21 -4 0 -6 -9 -11 -20
-11 -24 0 -26 -15 -4 -24 15 -6 15 -8 2 -24 -32 -35 -33 -92 -2 -92 19 0 18
-19 -3 -42 -20 -23 -19 -79 2 -91 22 -12 18 -25 -7 -29 -19 -2 -23 -9 -23 -41
0 -28 -4 -37 -16 -37 -9 0 -19 -10 -23 -22 -9 -35 -7 -138 3 -138 13 0 20 -25
14 -50 -3 -11 -11 -19 -18 -16 -6 2 -18 0 -26 -4 -23 -15 16 -24 41 -10 29 16
35 7 16 -27 -8 -15 -15 -22 -16 -15 0 23 -25 7 -26 -17 -1 -15 3 -20 13 -17
11 4 11 1 3 -15 -9 -17 -14 -18 -26 -8 -21 18 -36 -6 -28 -45 5 -21 3 -27 -7
-24 -19 7 -49 -10 -49 -27 0 -20 -37 -39 -43 -22 -4 9 -8 8 -16 -3 -8 -11 -7
-16 4 -18 8 -2 15 -10 15 -18 0 -10 -13 -14 -49 -14 -54 0 -73 -15 -73 -55 0
-14 -7 -26 -14 -26 -8 -1 -18 -3 -24 -4 -5 -1 -23 -3 -40 -4 -31 -1 -34 -11
-15 -54 4 -9 5 -29 3 -42 -3 -14 -1 -25 3 -25 5 0 9 -18 9 -40 0 -29 -4 -40
-15 -40 -11 0 -15 11 -15 38 0 41 -13 71 -24 54 -3 -6 -2 -13 4 -17 5 -3 10
-21 10 -39 0 -17 6 -38 12 -44 10 -10 10 -17 -1 -34 -22 -35 6 -47 101 -45 68
2 81 5 90 22 15 28 39 46 52 38 18 -12 60 -12 67 -1 4 6 12 7 19 3 9 -5 4 -14
-15 -31 l-28 -24 31 0 c24 0 30 4 26 15 -4 8 -2 15 4 15 6 0 17 3 26 6 12 5
16 0 17 -17 l0 -24 10 25 c15 36 4 98 -21 125 -24 25 -43 102 -29 111 18 11
73 232 74 299 0 6 4 13 8 16 15 11 11 95 -6 129 -20 38 -20 40 -8 40 5 0 11
-10 15 -22 l6 -23 14 21 c8 12 15 30 16 40 1 10 3 46 5 79 2 33 6 100 8 149 3
48 10 93 16 99 18 18 11 108 -12 170 -22 57 -22 57 -40 36z m-277 -948 c0 -5
-7 -11 -14 -14 -10 -4 -13 -1 -9 9 6 15 23 19 23 5z m-124 -98 c-10 -10 -19 5
-10 18 6 11 8 11 12 0 2 -7 1 -15 -2 -18z m54 -173 c0 -5 -4 -10 -10 -10 -5 0
-10 5 -10 10 0 6 5 10 10 10 6 0 10 -4 10 -10z m78 -2 c-6 -18 -28 -21 -28 -4
0 9 7 16 16 16 9 0 14 -5 12 -12z m-120 -39 c-2 -6 -8 -10 -13 -10 -5 0 -11 4
-13 10 -2 6 4 11 13 11 9 0 15 -5 13 -11z m66 -5 c9 -22 8 -24 -9 -24 -8 0
-15 9 -15 20 0 24 15 27 24 4z"/>
<path d="M5040 2550 c0 -5 7 -10 16 -10 8 0 12 5 9 10 -3 6 -10 10 -16 10 -5
0 -9 -4 -9 -10z"/>
<path d="M7312 2395 c-14 -16 -9 -18 26 -9 12 4 22 10 22 15 0 14 -34 10 -48
-6z"/>
<path d="M7297 2276 c-5 -14 10 -36 25 -36 13 0 9 27 -6 39 -10 9 -15 8 -19
-3z"/>
<path d="M7316 2191 c-7 -11 14 -20 32 -14 6 3 12 9 12 14 0 12 -37 12 -44 0z"/>
<path d="M7271 2164 c0 -11 3 -14 6 -6 3 7 2 16 -1 19 -3 4 -6 -2 -5 -13z"/>
<path d="M7271 2093 c-18 -20 -4 -31 15 -11 9 9 12 18 7 21 -4 3 -14 -2 -22
-10z"/>
<path d="M4648 2053 c7 -3 16 -2 19 1 4 3 -2 6 -13 5 -11 0 -14 -3 -6 -6z"/>
<path d="M6145 1850 c-3 -5 -1 -10 4 -10 6 0 11 5 11 10 0 6 -2 10 -4 10 -3 0
-8 -4 -11 -10z"/>
<path d="M6227 1843 c-4 -6 -4 -18 -1 -27 3 -9 1 -23 -5 -30 -8 -10 -9 -16 -1
-21 5 -3 13 2 17 12 4 10 11 21 17 26 8 5 8 9 0 15 -6 4 -13 14 -16 22 -3 9
-7 10 -11 3z"/>
<path d="M4800 1830 c0 -5 7 -10 16 -10 8 0 12 5 9 10 -3 6 -10 10 -16 10 -5
0 -9 -4 -9 -10z"/>
<path d="M6161 1804 c0 -11 3 -14 6 -6 3 7 2 16 -1 19 -3 4 -6 -2 -5 -13z"/>
<path d="M6276 1781 c-3 -5 0 -11 8 -14 15 -6 26 1 26 15 0 11 -27 10 -34 -1z"/>
<path d="M5470 1690 c0 -5 5 -10 10 -10 6 0 10 5 10 10 0 6 -4 10 -10 10 -5 0
-10 -4 -10 -10z"/>
<path d="M5940 1679 c0 -5 5 -7 10 -4 6 3 10 8 10 11 0 2 -4 4 -10 4 -5 0 -10
-5 -10 -11z"/>
<path d="M5440 1660 c0 -5 5 -10 11 -10 5 0 7 5 4 10 -3 6 -8 10 -11 10 -2 0
-4 -4 -4 -10z"/>
<path d="M5490 1645 c0 -8 5 -15 10 -15 6 0 10 7 10 15 0 8 -4 15 -10 15 -5 0
-10 -7 -10 -15z"/>
<path d="M6882 1620 c0 -19 2 -27 5 -17 2 9 2 25 0 35 -3 9 -5 1 -5 -18z"/>
<path d="M6770 1615 c0 -8 5 -15 10 -15 6 0 10 7 10 15 0 8 -4 15 -10 15 -5 0
-10 -7 -10 -15z"/>
<path d="M6906 1565 c-3 -9 -14 -15 -23 -13 -11 2 -18 -3 -18 -12 0 -9 7 -14
18 -12 9 2 20 -4 23 -13 13 -32 34 -16 34 25 0 41 -21 57 -34 25z"/>
<path d="M6640 1530 c0 -5 7 -10 15 -10 8 0 15 5 15 10 0 6 -7 10 -15 10 -8 0
-15 -4 -15 -10z"/>
<path d="M6725 1530 c-3 -5 1 -10 9 -10 9 0 16 5 16 10 0 6 -4 10 -9 10 -6 0
-13 -4 -16 -10z"/>
<path d="M6786 1515 c-3 -8 -1 -15 4 -15 6 0 10 7 10 15 0 8 -2 15 -4 15 -2 0
-6 -7 -10 -15z"/>
<path d="M7410 1511 c0 -5 9 -11 19 -14 14 -3 18 -1 14 9 -6 15 -33 19 -33 5z"/>
</g>
</svg>
